<svg width="16" height="16" viewBox="0 0 16 16" fill="none" xmlns="http://www.w3.org/2000/svg">
<rect x="9.5" y="10.5" width="5" height="4" rx="0.5" stroke="#616160"/>
<line x1="10" y1="11.5" x2="14" y2="11.5" stroke="#616160"/>
<path d="M0.5 9C0.5 8.72386 0.723858 8.5 1 8.5H5C5.27614 8.5 5.5 8.72386 5.5 9V14C5.5 14.2761 5.27614 14.5 5 14.5H1C0.723858 14.5 0.5 14.2761 0.5 14V9Z" stroke="#616160"/>
<line x1="1" y1="9.5" x2="5" y2="9.5" stroke="#616160"/>
<path d="M9.5 2C9.5 1.72386 9.72386 1.5 10 1.5H14C14.2761 1.5 14.5 1.72386 14.5 2V7C14.5 7.27614 14.2761 7.5 14 7.5H10C9.72386 7.5 9.5 7.27614 9.5 7V2Z" stroke="#616160"/>
<line x1="10" y1="2.5" x2="14" y2="2.5" stroke="#616160"/>
<rect x="0.5" y="0.5" width="5" height="4" rx="0.5" stroke="#616160"/>
<path d="M1 1.5H5" stroke="#616160"/>
<path d="M6 3.5H9M9 6.5H7.5V9.5H6M6 12.5H9" stroke="#616160" stroke-linejoin="round"/>
</svg>
