<svg width="16" height="16" viewBox="0 0 16 16" fill="none" xmlns="http://www.w3.org/2000/svg">
<path d="M0.5 1.5C0.5 0.947716 0.947715 0.5 1.5 0.5H13.5C14.0523 0.5 14.5 0.947715 14.5 1.5V13.5C14.5 14.0523 14.0523 14.5 13.5 14.5H1.5C0.947716 14.5 0.5 14.0523 0.5 13.5V1.5Z" stroke="#616160"/>
<path d="M5.81817 6.42131H4.88963L4.72574 7.15981H5.62234L4.81275 10.9684C4.70156 11.4829 4.57256 11.8478 4.43245 12.079C4.31676 12.27 4.21182 12.3427 4.12301 12.3622C4.147 12.3135 4.17535 12.2412 4.17535 12.1465C4.17535 11.9918 4.1185 11.8458 4.00954 11.7384C3.90033 11.6308 3.75106 11.5738 3.58767 11.5738C3.24541 11.5738 3 11.8722 3 12.1949C3 12.7034 3.48865 13 3.99054 13C4.52697 13 4.97337 12.7106 5.32834 12.2113C5.67972 11.7171 5.95556 11.0003 6.16465 10.0925L6.8341 7.15981H7.86709L7.88467 7.2522L8.28388 7.1429C8.46698 7.09546 8.56231 7.08232 8.61191 7.08232C8.66573 7.08232 8.6847 7.08726 8.69091 7.08961L8.69274 7.09053C8.69274 7.09053 8.69703 7.09403 8.70351 7.10318C8.71821 7.12395 8.73944 7.16506 8.76648 7.24627C8.79298 7.32584 8.82145 7.43268 8.85539 7.576L9.10858 8.68125L8.35859 9.72702C8.25964 9.86635 8.17021 9.97313 8.09769 10.0426C8.06172 10.077 8.03456 10.0978 8.01659 10.1088C8.00908 10.1071 7.99889 10.1045 7.98607 10.1003C7.95689 10.0907 7.92199 10.0752 7.8859 10.0539L7.87716 10.0492C7.74769 9.9805 7.60824 9.91768 7.46227 9.91768C7.13438 9.91768 6.9139 10.182 6.9139 10.4806C6.9139 10.6639 6.98423 10.8286 7.12289 10.9435C7.25676 11.0544 7.43315 11.1017 7.61948 11.1017C7.79921 11.1017 7.96964 11.0745 8.15635 10.9512C8.32964 10.8369 8.50549 10.6467 8.72437 10.3574L9.31802 9.56613L9.49447 10.2798C9.55487 10.5278 9.6307 10.7356 9.75734 10.8806C9.89806 11.0418 10.0786 11.1017 10.2823 11.1017C10.5292 11.1017 10.7367 11.0188 10.953 10.82C11.1567 10.6328 11.3758 10.336 11.6605 9.90056L11.7831 9.71295L11.2838 9.41763L11.1673 9.56109C11.1146 9.62607 11.076 9.67806 11.0328 9.73622C11.0099 9.76702 10.9857 9.79955 10.9575 9.83666C10.8449 9.9814 10.7734 10.062 10.7209 10.1067C10.6962 10.1276 10.6817 10.1354 10.6751 10.1382L10.6718 10.1395C10.67 10.1375 10.6678 10.1348 10.6652 10.1312C10.6421 10.0996 10.611 10.0329 10.5788 9.90603L10.2646 8.60935L10.264 8.60712C10.2219 8.44115 10.2031 8.33585 10.1959 8.27527C10.3958 7.93481 10.5742 7.67208 10.7204 7.49462C10.7979 7.40057 10.8614 7.33652 10.9099 7.29791C10.9337 7.27892 10.9487 7.27032 10.9556 7.26672C11.0089 7.26951 11.0487 7.28773 11.1114 7.32219L11.1275 7.33118C11.194 7.36835 11.3059 7.43099 11.4516 7.43099C11.6049 7.43099 11.7456 7.37324 11.8473 7.26663C11.9484 7.16076 12 7.01867 12 6.86804C12 6.7019 11.9332 6.55321 11.8146 6.44839C11.6981 6.34542 11.5442 6.2954 11.3828 6.2954C11.0961 6.2954 10.8472 6.41606 10.5901 6.65731C10.4124 6.82408 10.2227 7.05598 10.0045 7.36196L9.99087 7.29833C9.92238 6.97054 9.85286 6.72826 9.75374 6.56698C9.70109 6.48131 9.63461 6.40891 9.54706 6.36008C9.45924 6.31109 9.36738 6.2954 9.28008 6.2954C9.01498 6.2954 8.66078 6.37461 8.05814 6.58884L8.00691 6.6072L8.04227 6.42131H6.99224C7.12078 5.79622 7.26221 5.35176 7.42034 5.05964C7.57662 4.77094 7.72782 4.66593 7.87386 4.64553C7.85203 4.69956 7.8344 4.76766 7.8344 4.85351C7.8344 5.21443 8.12742 5.44552 8.41224 5.44552C8.76332 5.44552 9.03922 5.13935 9.03922 4.81477C9.03922 4.55785 8.90302 4.34726 8.70647 4.20866C8.51246 4.07185 8.25575 4 7.9799 4C7.28566 4 6.82569 4.38746 6.50815 4.83599C6.18646 5.2877 6.01173 5.80774 5.81817 6.42131Z" fill="#616160"/>
<path d="M1 1H14V3H1V1Z" fill="#616160"/>
</svg>
